<svg width="112" height="112" viewBox="0 0 112 112" fill="none" xmlns="http://www.w3.org/2000/svg">
<circle cx="56" cy="56" r="56" fill="url(#paint0_linear)" fill-opacity="0.1"/>
<g clip-path="url(#clip0)">
<path d="M40.0268 33.1544C43.4328 30.6879 47.5436 28.9262 51.8892 28.2215V20C45.1946 20.8221 39.2046 23.406 34.1543 27.3993L40.0268 33.1544Z" fill="#2590FE"/>
<path d="M28.5168 34.916L32.745 39.1442C30.6309 42.3154 29.104 45.9563 28.3993 49.7147H22.2919C23.2315 44.312 25.2282 39.2617 28.5168 34.916ZM28.3993 33.1543C24.406 38.2046 21.8221 44.1946 21 50.8892H29.3389C30.0436 46.5436 31.6879 42.4328 34.2718 39.0268L28.3993 33.1543Z" fill="#041E44"/>
<path d="M83.4833 34.916C86.6545 39.2617 88.7685 44.312 89.5907 49.7147H83.6008C82.8961 45.9563 81.3692 42.3154 79.2551 39.1442L83.4833 34.916ZM83.6008 33.1543L77.7283 39.0268C80.1947 42.4328 81.9565 46.5436 82.6612 50.8892H91.0001C90.1779 44.1946 87.594 38.2046 83.6008 33.1543Z" fill="#041E44"/>
<path d="M60.1108 20V28.3389C64.4565 29.0436 68.5672 30.6879 71.9733 33.2718L77.8457 27.3993C72.7954 23.406 66.8055 20.8221 60.1108 20Z" fill="#2590FE"/>
<path d="M89.5907 60.2852C88.7685 65.5704 86.6545 70.6208 83.4833 75.0839L79.2551 70.8557C81.3692 67.6845 82.8961 64.0436 83.6008 60.2852H89.5907ZM91.0001 59.1107H82.6612C81.9565 63.4564 80.3122 67.5671 77.7283 70.9731L83.6008 76.8456C87.594 71.7953 90.1779 65.8053 91.0001 59.1107Z" fill="#041E44"/>
<path d="M71.8558 78.255L76.084 82.4832C71.7384 85.6543 66.688 87.7684 61.2853 88.5906V82.6006C65.0437 82.0134 68.6847 80.4865 71.8558 78.255ZM71.9733 76.7281C68.5672 79.1946 64.4565 80.9563 60.1108 81.661V90C66.8055 89.1778 72.7954 86.5939 77.8457 82.6006L71.9733 76.7281Z" fill="#041E44"/>
<path d="M28.2819 60.2852C28.9866 64.0436 30.5134 67.6845 32.6275 70.8557L28.3993 75.0839C25.2282 70.7382 23.1141 65.6879 22.2919 60.2852H28.2819ZM29.3389 59.1107H21C21.8221 65.8053 24.406 71.7953 28.3993 76.8456L34.2718 70.9731C31.6879 67.5671 29.9262 63.4564 29.3389 59.1107Z" fill="#041E44"/>
<path d="M40.1442 78.255C43.3154 80.3691 46.9563 81.8959 50.7147 82.6006V88.5906C45.4295 87.7684 40.3791 85.6543 35.916 82.4832L40.1442 78.255ZM40.0268 76.7281L34.1543 82.6006C39.2046 86.5939 45.1946 89.1778 51.8892 90V81.661C47.5436 81.0738 43.4328 79.312 40.0268 76.7281Z" fill="#041E44"/>
<path d="M60.6981 56.057C61.0224 56.057 61.2853 56.0045 61.2853 55.9396C61.2853 55.8747 61.0224 55.8221 60.6981 55.8221C60.3738 55.8221 60.1108 55.8747 60.1108 55.9396C60.1108 56.0045 60.3738 56.057 60.6981 56.057Z" fill="#2590FE"/>
</g>
<defs>
<linearGradient id="paint0_linear" x1="-56" y1="56" x2="56" y2="168" gradientUnits="userSpaceOnUse">
<stop stop-color="#3FABFF"/>
<stop offset="1" stop-color="#006BFF"/>
</linearGradient>
<clipPath id="clip0">
<rect width="70" height="70" fill="white" transform="translate(21 20)"/>
</clipPath>
</defs>
</svg>
