<svg width="112" height="112" viewBox="0 0 112 112" fill="none" xmlns="http://www.w3.org/2000/svg">
<circle cx="56" cy="56" r="56" fill="url(#paint0_linear)" fill-opacity="0.1"/>
<g clip-path="url(#clip0)">
<path d="M45.3001 55C39.7001 55 35.1001 59.5 35.1001 65.1C35.1001 65.5 35.4001 65.8 35.8001 65.8H54.7001C55.1001 65.8 55.4001 65.5 55.4001 65.1C55.4001 59.5 50.9001 55 45.3001 55Z" fill="#2590FE"/>
<path d="M45.2999 52.5C48.7999 52.5 51.6999 49.6 51.6999 46.1C51.6999 42.6 48.7999 39.7 45.2999 39.7C41.7999 39.7 38.8999 42.5 38.8999 46.1C38.8999 49.6 41.6999 52.5 45.2999 52.5C45.2999 52.5 45.1999 52.5 45.2999 52.5Z" fill="#2590FE"/>
<path d="M79.3 29H34.4C28.6 29 24 33.6 24 39.4V67.7C24 73.4 28.6 78 34.4 78H79.3C85 78 89.7 73.4 89.7 67.6V39.4C89.6 33.7 85 29 79.3 29ZM88.2 67.7C88.2 72.6 84.2 76.6 79.3 76.6H34.4C29.5 76.6 25.5 72.6 25.5 67.7V39.4C25.5 34.5 29.5 30.5 34.4 30.5H79.3C84.2 30.5 88.2 34.5 88.2 39.4V67.7Z" fill="#041E44"/>
<path d="M78.9 46.8999H62.9C62.5 46.8999 62.2 47.1999 62.2 47.5999C62.2 47.9999 62.5 48.2999 62.9 48.2999H78.9C79.3 48.2999 79.5999 47.9999 79.5999 47.5999C79.5999 47.1999 79.3 46.8999 78.9 46.8999Z" fill="#041E44"/>
<path d="M78.9 58.6H62.9C62.5 58.6 62.2 58.9 62.2 59.3C62.2 59.7 62.5 60 62.9 60H78.9C79.3 60 79.5999 59.7 79.5999 59.3C79.5999 58.9 79.3 58.6 78.9 58.6Z" fill="#041E44"/>
</g>
<defs>
<linearGradient id="paint0_linear" x1="-56" y1="56" x2="56" y2="168" gradientUnits="userSpaceOnUse">
<stop stop-color="#3FABFF"/>
<stop offset="1" stop-color="#006BFF"/>
</linearGradient>
<clipPath id="clip0">
<rect width="65.6" height="49" fill="white" transform="translate(24 29)"/>
</clipPath>
</defs>
</svg>
