<svg width="34" height="34" viewBox="0 0 34 34" fill="none" xmlns="http://www.w3.org/2000/svg">
<path d="M25.6328 15.2734C26.3663 15.2734 26.9609 14.6788 26.9609 13.9453C26.9609 13.2118 26.3663 12.6172 25.6328 12.6172C24.8993 12.6172 24.3047 13.2118 24.3047 13.9453C24.3047 14.6788 24.8993 15.2734 25.6328 15.2734Z" fill="url(#paint0_linear)"/>
<path d="M28.6875 2.65625H26.9609V1.32812C26.9609 0.594602 26.3663 0 25.6328 0C24.8993 0 24.3047 0.594602 24.3047 1.32812V2.65625H18.2617V1.32812C18.2617 0.594602 17.6671 0 16.9336 0C16.2 0 15.6054 0.594602 15.6054 1.32812V2.65625H9.62886V1.32812C9.62886 0.594602 9.03426 0 8.30074 0C7.56721 0 6.97261 0.594602 6.97261 1.32812V2.65625H5.31245C2.38313 2.65625 -6.10352e-05 5.03944 -6.10352e-05 7.96875V28.6875C-6.10352e-05 31.6168 2.38313 34 5.31245 34H15.4726C16.2061 34 16.8008 33.4054 16.8008 32.6719C16.8008 31.9384 16.2061 31.3438 15.4726 31.3438H5.31245C3.84779 31.3438 2.65619 30.1522 2.65619 28.6875V7.96875C2.65619 6.50409 3.84779 5.3125 5.31245 5.3125H6.97261V6.64062C6.97261 7.37415 7.56721 7.96875 8.30074 7.96875C9.03426 7.96875 9.62886 7.37415 9.62886 6.64062V5.3125H15.6054V6.64062C15.6054 7.37415 16.2 7.96875 16.9336 7.96875C17.6671 7.96875 18.2617 7.37415 18.2617 6.64062V5.3125H24.3047V6.64062C24.3047 7.37415 24.8993 7.96875 25.6328 7.96875C26.3663 7.96875 26.9609 7.37415 26.9609 6.64062V5.3125H28.6875C30.1521 5.3125 31.3437 6.50409 31.3437 7.96875V15.5391C31.3437 16.2726 31.9383 16.8672 32.6719 16.8672C33.4054 16.8672 34 16.2726 34 15.5391V7.96875C34 5.03944 31.6168 2.65625 28.6875 2.65625Z" fill="url(#paint1_linear)"/>
<path d="M25.9648 17.9297C21.5342 17.9297 17.9297 21.5342 17.9297 25.9648C17.9297 30.3955 21.5342 34 25.9648 34C30.3955 34 34 30.3955 34 25.9648C34 21.5342 30.3955 17.9297 25.9648 17.9297ZM25.9648 31.3438C22.9989 31.3438 20.5859 28.9308 20.5859 25.9648C20.5859 22.9989 22.9989 20.5859 25.9648 20.5859C28.9307 20.5859 31.3437 22.9989 31.3437 25.9648C31.3437 28.9308 28.9307 31.3438 25.9648 31.3438Z" fill="url(#paint2_linear)"/>
<path d="M27.8906 24.6367H27.293V23.2422C27.293 22.5087 26.6984 21.9141 25.9648 21.9141C25.2313 21.9141 24.6367 22.5087 24.6367 23.2422V25.9648C24.6367 26.6984 25.2313 27.293 25.9648 27.293H27.8906C28.6241 27.293 29.2187 26.6984 29.2187 25.9648C29.2187 25.2313 28.6241 24.6367 27.8906 24.6367Z" fill="url(#paint3_linear)"/>
<path d="M19.8554 15.2734C20.5889 15.2734 21.1836 14.6788 21.1836 13.9453C21.1836 13.2118 20.5889 12.6172 19.8554 12.6172C19.1219 12.6172 18.5273 13.2118 18.5273 13.9453C18.5273 14.6788 19.1219 15.2734 19.8554 15.2734Z" fill="url(#paint4_linear)"/>
<path d="M14.0781 21.0508C14.8116 21.0508 15.4062 20.4562 15.4062 19.7227C15.4062 18.9892 14.8116 18.3945 14.0781 18.3945C13.3446 18.3945 12.75 18.9892 12.75 19.7227C12.75 20.4562 13.3446 21.0508 14.0781 21.0508Z" fill="url(#paint5_linear)"/>
<path d="M8.30074 15.2734C9.03424 15.2734 9.62886 14.6788 9.62886 13.9453C9.62886 13.2118 9.03424 12.6172 8.30074 12.6172C7.56723 12.6172 6.97261 13.2118 6.97261 13.9453C6.97261 14.6788 7.56723 15.2734 8.30074 15.2734Z" fill="url(#paint6_linear)"/>
<path d="M8.30074 21.0508C9.03424 21.0508 9.62886 20.4562 9.62886 19.7227C9.62886 18.9892 9.03424 18.3945 8.30074 18.3945C7.56723 18.3945 6.97261 18.9892 6.97261 19.7227C6.97261 20.4562 7.56723 21.0508 8.30074 21.0508Z" fill="url(#paint7_linear)"/>
<path d="M8.30074 26.8281C9.03424 26.8281 9.62886 26.2335 9.62886 25.5C9.62886 24.7665 9.03424 24.1719 8.30074 24.1719C7.56723 24.1719 6.97261 24.7665 6.97261 25.5C6.97261 26.2335 7.56723 26.8281 8.30074 26.8281Z" fill="url(#paint8_linear)"/>
<path d="M14.0781 26.8281C14.8116 26.8281 15.4062 26.2335 15.4062 25.5C15.4062 24.7665 14.8116 24.1719 14.0781 24.1719C13.3446 24.1719 12.75 24.7665 12.75 25.5C12.75 26.2335 13.3446 26.8281 14.0781 26.8281Z" fill="url(#paint9_linear)"/>
<path d="M14.0781 15.2734C14.8116 15.2734 15.4062 14.6788 15.4062 13.9453C15.4062 13.2118 14.8116 12.6172 14.0781 12.6172C13.3446 12.6172 12.75 13.2118 12.75 13.9453C12.75 14.6788 13.3446 15.2734 14.0781 15.2734Z" fill="url(#paint10_linear)"/>
<defs>
<linearGradient id="paint0_linear" x1="-17.0001" y1="17" x2="16.9999" y2="51.0001" gradientUnits="userSpaceOnUse">
<stop stop-color="#3FABFF"/>
<stop offset="1" stop-color="#006BFF"/>
</linearGradient>
<linearGradient id="paint1_linear" x1="-17.0001" y1="17" x2="16.9999" y2="51.0001" gradientUnits="userSpaceOnUse">
<stop stop-color="#3FABFF"/>
<stop offset="1" stop-color="#006BFF"/>
</linearGradient>
<linearGradient id="paint2_linear" x1="-17.0001" y1="17" x2="16.9999" y2="51.0001" gradientUnits="userSpaceOnUse">
<stop stop-color="#3FABFF"/>
<stop offset="1" stop-color="#006BFF"/>
</linearGradient>
<linearGradient id="paint3_linear" x1="-17.0001" y1="17" x2="16.9999" y2="51.0001" gradientUnits="userSpaceOnUse">
<stop stop-color="#3FABFF"/>
<stop offset="1" stop-color="#006BFF"/>
</linearGradient>
<linearGradient id="paint4_linear" x1="-17.0001" y1="17" x2="16.9999" y2="51.0001" gradientUnits="userSpaceOnUse">
<stop stop-color="#3FABFF"/>
<stop offset="1" stop-color="#006BFF"/>
</linearGradient>
<linearGradient id="paint5_linear" x1="-17.0001" y1="17" x2="16.9999" y2="51.0001" gradientUnits="userSpaceOnUse">
<stop stop-color="#3FABFF"/>
<stop offset="1" stop-color="#006BFF"/>
</linearGradient>
<linearGradient id="paint6_linear" x1="-17.0001" y1="17" x2="16.9999" y2="51.0001" gradientUnits="userSpaceOnUse">
<stop stop-color="#3FABFF"/>
<stop offset="1" stop-color="#006BFF"/>
</linearGradient>
<linearGradient id="paint7_linear" x1="-17.0001" y1="17" x2="16.9999" y2="51.0001" gradientUnits="userSpaceOnUse">
<stop stop-color="#3FABFF"/>
<stop offset="1" stop-color="#006BFF"/>
</linearGradient>
<linearGradient id="paint8_linear" x1="-17.0001" y1="17" x2="16.9999" y2="51.0001" gradientUnits="userSpaceOnUse">
<stop stop-color="#3FABFF"/>
<stop offset="1" stop-color="#006BFF"/>
</linearGradient>
<linearGradient id="paint9_linear" x1="-17.0001" y1="17" x2="16.9999" y2="51.0001" gradientUnits="userSpaceOnUse">
<stop stop-color="#3FABFF"/>
<stop offset="1" stop-color="#006BFF"/>
</linearGradient>
<linearGradient id="paint10_linear" x1="-17.0001" y1="17" x2="16.9999" y2="51.0001" gradientUnits="userSpaceOnUse">
<stop stop-color="#3FABFF"/>
<stop offset="1" stop-color="#006BFF"/>
</linearGradient>
</defs>
</svg>
