<svg width="43" height="42" viewBox="0 0 43 42" fill="none" xmlns="http://www.w3.org/2000/svg">
<circle cx="21.1081" cy="20.9999" r="21" fill="white"/>
<g clip-path="url(#clip0)">
<path fill-rule="evenodd" clip-rule="evenodd" d="M13.1431 19.8996H13.217C13.217 14.7472 16.7657 10.9999 21.6451 10.9999C26.4505 10.9999 29.9991 14.7472 29.9991 19.8996H30.0731C30.6645 19.8996 31.1081 20.368 31.1081 20.9925V21.3048H12.1081V20.9925C12.1081 20.368 12.5517 19.8996 13.1431 19.8996ZM30.9602 22.1635V24.1932H28.2248C28.077 24.7397 27.8552 25.2081 27.6334 25.7546L29.5556 27.7063L26.8941 30.5947L24.9719 28.565C24.5283 28.7992 24.0108 29.0334 23.4933 29.1895V31.9999H19.7229V29.1895C19.2054 29.0334 18.7618 28.7992 18.3182 28.565L16.396 30.5947L13.7346 27.7063L15.6567 25.7546C15.361 25.2081 15.1392 24.7397 14.9914 24.1932H12.3299V22.1635H17.3571C17.3571 24.6616 19.2793 26.6914 21.6451 26.6914C23.9369 26.6914 25.8591 24.6616 25.8591 22.1635H30.9602ZM21.6451 13.8103C22.6801 13.8103 23.5672 14.7472 23.5672 15.9182C23.5672 17.0111 22.6801 17.9479 21.6451 17.9479C20.5361 17.9479 19.6489 17.0111 19.6489 15.9182C19.6489 14.7472 20.5361 13.8103 21.6451 13.8103Z" fill="url(#paint0_linear)"/>
</g>
<defs>
<linearGradient id="paint0_linear" x1="2.60809" y1="21.4999" x2="23.5034" y2="40.4052" gradientUnits="userSpaceOnUse">
<stop stop-color="#3FABFF"/>
<stop offset="1" stop-color="#006BFF"/>
</linearGradient>
<clipPath id="clip0">
<rect width="19" height="21" fill="white" transform="translate(12.1081 10.9999)"/>
</clipPath>
</defs>
</svg>
