<svg width="21" height="21" viewBox="0 0 21 21" fill="none" xmlns="http://www.w3.org/2000/svg">
<path fill-rule="evenodd" clip-rule="evenodd" d="M13.0436 12.4248H13.7322L18.0815 16.7828L16.7828 18.0815L12.4248 13.7322V13.0436L12.1894 12.7996C11.1958 13.6537 9.90583 14.168 8.50254 14.168C5.37347 14.168 2.8371 11.6316 2.8371 8.50254C2.8371 5.37347 5.37347 2.8371 8.50254 2.8371C11.6316 2.8371 14.168 5.37347 14.168 8.50254C14.168 9.90583 13.6537 11.1958 12.7996 12.1894L13.0436 12.4248ZM4.58031 8.50254C4.58031 10.6728 6.33224 12.4248 8.50254 12.4248C10.6728 12.4248 12.4248 10.6728 12.4248 8.50254C12.4248 6.33224 10.6728 4.58031 8.50254 4.58031C6.33224 4.58031 4.58031 6.33224 4.58031 8.50254Z" fill="#C2CBD8"/>
</svg>
