<svg width="112" height="112" viewBox="0 0 112 112" fill="none" xmlns="http://www.w3.org/2000/svg">
<circle cx="56" cy="56" r="56" fill="url(#paint0_linear)" fill-opacity="0.1"/>
<rect x="32" y="67" width="47" height="6" rx="3" fill="#2590FE"/>
<path d="M55.4566 26C55.3697 26 55.3697 26 55.3697 26C55.1959 26 55.109 26.087 55.0221 26.1741L42.8578 38.3584C42.5103 38.6195 42.5103 39.0546 42.7709 39.3157C43.0316 39.5768 43.5529 39.5768 43.8136 39.2287L54.7615 28.3498C54.7615 28.6109 54.7615 28.959 54.7615 29.3942C54.7615 30.4386 54.7615 31.8311 54.7615 33.5717C54.7615 37.0529 54.7615 41.4915 54.7615 46.1041C54.7615 55.1553 54.7615 64.2065 54.7615 64.2065C54.7615 64.5546 55.109 64.9027 55.4566 64.9027C55.8041 64.9027 56.1517 64.5546 56.1517 64.2065C56.1517 64.2065 56.1517 55.2423 56.1517 46.1041C56.1517 41.5785 56.1517 37.0529 56.1517 33.5717C56.1517 31.8311 56.1517 30.4386 56.1517 29.3942C56.1517 28.872 56.1517 28.5239 56.1517 28.2628L67.1864 39.3157C67.4471 39.6638 67.8815 39.6638 68.2291 39.4027C68.4897 39.1416 68.4897 38.6195 68.1422 38.4454L55.9779 26.2611C55.8041 26.087 55.6303 26 55.4566 26ZM33.2133 54.9812C30.346 54.9812 28 57.3311 28 60.2901V71.6911C28 74.5631 30.346 77 33.2133 77H77.6998C80.5671 77 83 74.6502 83 71.6911V60.2901C83 57.4181 80.654 54.9812 77.6998 54.9812H68.8373C68.4897 54.9812 68.1422 55.3294 68.1422 55.6775C68.1422 56.0256 68.4897 56.3737 68.8373 56.3737H77.6998C79.872 56.3737 81.6098 58.1143 81.6098 60.2901V71.6911C81.6098 73.8669 79.872 75.6075 77.6998 75.6075H33.2133C31.0411 75.6075 29.3033 73.8669 29.3033 71.6911V60.2901C29.3033 58.1143 31.0411 56.3737 33.2133 56.3737H42.0758C42.4234 56.3737 42.7709 56.0256 42.7709 55.6775C42.7709 55.3294 42.4234 54.9812 42.0758 54.9812H33.2133Z" fill="#041E44"/>
<defs>
<linearGradient id="paint0_linear" x1="-56" y1="56" x2="56" y2="168" gradientUnits="userSpaceOnUse">
<stop stop-color="#3FABFF"/>
<stop offset="1" stop-color="#006BFF"/>
</linearGradient>
</defs>
</svg>
