<?xml version="1.0" encoding="utf-8"?>
<!-- Generator: Adobe Illustrator 19.0.0, SVG Export Plug-In . SVG Version: 6.00 Build 0)  -->
<svg version="1.1" id="Layer_1" xmlns="http://www.w3.org/2000/svg" xmlns:xlink="http://www.w3.org/1999/xlink" x="0px" y="0px"
	 viewBox="20 -21 42 42" style="enable-background:new 20 -21 42 42;" xml:space="preserve">
<style type="text/css">
	.st0{fill:#FFFFFF;}
	.st1{fill:url(#SVGID_1_);}
</style>
<circle class="st0" cx="41" cy="0" r="21"/>
<linearGradient id="SVGID_1_" gradientUnits="userSpaceOnUse" x1="29" y1="11" x2="53" y2="-13" gradientTransform="matrix(1 0 0 -1 0 -1)">
	<stop  offset="0" style="stop-color:#3FABFF"/>
	<stop  offset="1" style="stop-color:#006BFF"/>
</linearGradient>
<path class="st1" d="M52.8-0.7l-1.1-1.8c-0.1-0.2-0.2-0.5-0.2-0.7l0.1-2.1c0-0.3-0.1-0.5-0.2-0.7c-0.1-0.2-0.3-0.4-0.5-0.5l-1.8-1
	c-0.2-0.1-0.4-0.3-0.5-0.5l-1-1.8c-0.1-0.2-0.3-0.4-0.5-0.5c-0.2-0.1-0.5-0.2-0.7-0.2l0,0l-2.1,0.1l0,0c-0.3,0-0.5-0.1-0.7-0.2
	l-1.8-1.1C41.5-11.9,41.3-12,41-12c-0.3,0-0.5,0.1-0.7,0.2l-1.8,1.1c-0.2,0.1-0.5,0.2-0.7,0.2l0,0l-2.1-0.1l0,0
	c-0.2,0-0.5,0.1-0.7,0.2c-0.2,0.1-0.4,0.3-0.5,0.5l-1,1.8c-0.1,0.2-0.3,0.4-0.5,0.5l-1.8,1c-0.2,0.1-0.4,0.3-0.5,0.5
	c-0.1,0.2-0.2,0.5-0.2,0.7l0.1,2.1c0,0.3-0.1,0.5-0.2,0.7l-1.1,1.8C29.1-0.5,29-0.3,29,0s0.1,0.5,0.2,0.7l1.1,1.8
	c0.1,0.2,0.2,0.5,0.2,0.7l-0.1,2.1c0,0.3,0.1,0.5,0.2,0.7c0.1,0.2,0.3,0.4,0.5,0.5l1.8,1c0.2,0.1,0.4,0.3,0.5,0.5l1,1.8
	c0.1,0.2,0.3,0.4,0.5,0.5s0.5,0.2,0.7,0.2l0,0l2.1-0.1l0,0c0.3,0,0.5,0.1,0.7,0.2l1.8,1.1c0.2,0.1,0.5,0.2,0.7,0.2s0.5-0.1,0.7-0.2
	l1.8-1.1c0.2-0.1,0.5-0.2,0.7-0.2l0,0l2.1,0.1l0,0c0.2,0,0.5-0.1,0.7-0.2c0.2-0.1,0.4-0.3,0.5-0.5l1-1.8c0.1-0.2,0.3-0.4,0.5-0.5
	l1.8-1c0.2-0.1,0.4-0.3,0.5-0.5c0.1-0.2,0.2-0.5,0.2-0.7l-0.1-2.1c0-0.3,0.1-0.5,0.2-0.7l1.1-1.8C52.9,0.5,53,0.3,53,0
	S52.9-0.5,52.8-0.7z M46.1-1.9l-5.4,6.8c-0.1,0.1-0.3,0.3-0.4,0.4c-0.2,0.1-0.4,0.1-0.5,0.1c0,0-0.1,0-0.1,0c-0.2,0-0.4,0-0.5-0.1
	C39,5.3,38.8,5.2,38.7,5L36,2.3c-0.3-0.3-0.4-0.6-0.4-1c0-0.4,0.1-0.7,0.4-1c0.3-0.3,0.6-0.4,1-0.4c0.4,0,0.7,0.1,1,0.4L39.5,2
	L44-3.6c0.2-0.3,0.6-0.5,0.9-0.5c0.4,0,0.7,0.1,1,0.3c0.3,0.2,0.5,0.6,0.5,0.9S46.4-2.2,46.1-1.9z"/>
</svg>
