<svg width="295" height="38" viewBox="0 0 295 38" fill="none" xmlns="http://www.w3.org/2000/svg">
<path d="M8.52601 7.37069H13.1544V26.3707H23.8728L22.736 30.3017H8.52601" fill="#000D22"/>
<path d="M25.0096 30.3017L32.886 7.37069H37.2708L45.1473 30.3017H40.1941L38.8136 25.9612H31.1808L29.8816 30.3017H25.0096ZM32.48 22.0302H37.5956L35.0784 13.9224L32.48 22.0302Z" fill="#000D22"/>
<path d="M66.0969 7.37069V30.3017H62.2805L53.3485 16.1336V30.3017H48.9637V7.37069H52.8613L61.7121 21.7845V7.37069H66.0969Z" fill="#000D22"/>
<path d="M72.2681 30.3017V7.37069H80.3881C85.5037 7.37069 89.1577 9.99138 89.1577 17.3621V20.3922C89.1577 27.681 85.5849 30.3836 80.3881 30.3836H72.2681V30.3017ZM84.4481 20.3103V17.2802C84.4481 13.3491 83.3925 11.3017 80.3069 11.3017H76.8153V26.3707H80.3881C83.3925 26.3707 84.4481 24.3233 84.4481 20.3103Z" fill="#000D22"/>
<path d="M0 38H175.311V0H0V38ZM96.8717 36.3621H1.624V1.63793H96.8717V36.3621ZM120.257 30.3017H118.309V19.3276H107.022V30.3017H105.073V7.37069H107.022V17.5259H118.309V7.37069H120.257V30.3017ZM143.968 20.9655C143.968 27.681 140.801 30.5474 135.929 30.5474C130.976 30.5474 127.89 27.681 127.89 20.9655V7.37069H129.839V20.9655C129.839 26.2888 132.031 28.7457 136.01 28.7457C139.989 28.7457 142.181 26.2888 142.181 20.9655V7.37069H144.13V20.9655H143.968ZM159.071 30.3017H151.519V7.37069H158.259C163.456 7.37069 165.973 9.4181 165.973 13.1853C165.973 15.7241 164.268 17.7716 162.075 18.3448C164.917 19 166.704 20.8836 166.704 23.9138C166.785 27.0259 164.755 30.3017 159.071 30.3017Z" fill="#000D22"/>
<path d="M164.105 13.1853C164.105 10.8922 162.887 9.17242 158.259 9.17242H153.468V17.5259H158.909C162.563 17.5259 164.105 15.5603 164.105 13.1853Z" fill="#000D22"/>
<path d="M158.421 19.3276H153.468V28.5H159.071C162.969 28.5 164.836 26.6164 164.836 23.9138C164.836 20.8017 162.725 19.3276 158.421 19.3276Z" fill="#000D22"/>
<path d="M250.827 10.4009C249.528 11.3017 248.716 12.6121 248.472 14.0862L247.336 20.8836C247.254 21.2112 247.254 21.4569 247.254 21.7845C247.254 22.8491 247.66 23.8319 248.391 24.569C249.366 25.4698 250.665 25.9612 252.451 25.9612C252.451 25.9612 258.704 25.9612 258.785 25.9612C258.866 25.8793 259.434 22.6035 259.434 22.6854C259.191 22.6854 253.02 22.6854 253.02 22.6854C252.532 22.6854 252.126 22.4397 251.802 22.2759C251.477 22.0302 251.314 21.6207 251.314 21.2112C251.314 21.1293 251.314 21.0474 251.314 20.9655L251.639 19.1638H260.003C260.003 19.0819 260.246 17.444 260.246 17.444L260.652 15.3147L260.815 14.1681C261.058 12.694 260.652 11.4655 259.678 10.4828C258.704 9.5819 257.242 9.09052 255.456 9.09052C253.75 9.00863 252.208 9.50001 250.827 10.4009ZM255.05 12.3664C255.862 12.3664 256.43 12.5302 256.674 12.9397C256.917 13.2672 256.998 13.6767 256.917 14.1681L256.592 15.8879H252.208L252.532 14.0862C252.695 12.9397 253.588 12.3664 255.05 12.3664Z" fill="#ABBED3"/>
<path d="M228.172 10.4828C226.873 11.3836 226.061 12.6121 225.818 14.0862C225.818 14.0862 224.031 24.8147 223.869 25.8793H227.929C227.929 25.7155 229.878 14.0043 229.878 14.0043C229.959 13.5129 230.284 13.1034 230.69 12.7759C231.177 12.4483 231.745 12.2845 232.314 12.2845C233.126 12.2845 233.613 12.4483 233.938 12.8578C234.1 13.1034 234.181 13.3491 234.181 13.6767C234.181 13.7586 234.181 13.9224 234.181 14.0862C234.181 14.0862 232.395 24.8147 232.232 25.8793H236.292C236.292 25.7155 238.241 14.0862 238.241 14.0862C238.322 13.8405 238.322 13.5129 238.322 13.2672C238.322 12.1207 237.916 11.2198 237.104 10.4828C236.049 9.58189 234.668 9.09052 232.801 9.09052C231.096 9.09052 229.472 9.5 228.172 10.4828Z" fill="#ABBED3"/>
<path d="M221.839 5.73276C221.839 5.73276 218.591 25.7155 218.591 25.8793H222.651C222.651 25.7155 225.899 6.06034 225.899 5.73276H221.839Z" fill="#ABBED3"/>
<path d="M264.55 10.4009C263.251 11.3017 262.439 12.5302 262.195 14.0043L261.058 20.8017C261.058 21.0474 260.977 21.2931 260.977 21.4569C260.977 22.6035 261.464 23.5862 262.439 24.4052C263.494 25.306 264.875 25.7974 266.418 25.7974H268.61V25.8793C268.61 25.8793 268.529 27.4353 267.96 28.0905C267.636 28.4181 267.067 28.5819 266.336 28.5819C266.336 28.5819 261.708 28.5819 261.627 28.5819C261.546 28.6638 259.11 32.1853 259.11 32.1853H267.311C271.858 32.1853 272.508 27.5172 272.832 25.7974L272.914 25.4698L274.862 13.5948C275.025 12.2845 274.619 11.2198 273.644 10.319C272.589 9.41811 271.208 8.92673 269.422 8.92673C267.473 9.00862 265.93 9.5 264.55 10.4009ZM265.362 21.7845C265.118 21.4569 265.037 21.0474 265.118 20.6379L266.255 14.0043C266.418 12.8578 267.23 12.2845 268.691 12.2845C269.503 12.2845 270.072 12.4483 270.396 12.8578C270.64 13.1853 270.721 13.5948 270.64 14.0862L269.828 19.3276L269.584 20.8017C269.422 21.9483 268.529 22.5216 267.148 22.5216H266.986H266.905C266.255 22.4397 265.687 22.194 265.362 21.7845Z" fill="#ABBED3"/>
<path d="M282.495 9.09052C280.952 9.17241 279.491 9.66379 278.273 10.5647C276.892 11.5474 276.08 12.694 275.918 14.0862C275.918 14.0862 274.132 24.8147 273.969 25.8793H278.029C278.029 25.7155 279.978 14.0043 279.978 14.0043C280.059 13.5129 280.303 13.1034 280.79 12.7759C281.115 12.5302 281.521 12.3664 281.927 12.2845C282.089 12.1207 284.2 12.2845 284.2 12.2845L284.769 9.09052C284.769 9.09052 282.495 9.09052 282.495 9.09052Z" fill="#ABBED3"/>
<path d="M285.5 12.2845H288.017H288.666H288.91C289.478 12.2845 289.966 12.4483 290.372 12.8578C290.778 13.1853 290.859 13.6767 290.778 14.1681L290.453 16.0517H288.26C286.474 16.0517 284.931 16.5431 283.551 17.5259C282.17 18.5086 281.358 19.6552 281.196 21.0474C281.034 22.5216 281.44 23.75 282.414 24.6509C283.388 25.5517 284.85 26.0431 286.636 26.0431C288.423 26.0431 289.966 25.5517 291.346 24.6509C292.645 23.75 293.457 22.5216 293.701 21.0474L294.838 14.1681C294.838 13.9224 294.919 13.6767 294.919 13.5129C294.919 12.3664 294.432 11.3836 293.457 10.5647C292.32 9.6638 291.021 9.17242 289.478 9.17242H285.987L285.5 12.2845ZM285.581 22.1121C285.337 21.7845 285.256 21.375 285.337 20.8836C285.662 19.7371 286.474 19.0819 287.773 19.0819H289.966L289.641 20.8836C289.56 21.375 289.235 21.7845 288.829 22.1121C288.342 22.4397 287.773 22.6035 287.205 22.6035C286.474 22.6853 285.906 22.4397 285.581 22.1121Z" fill="#ABBED3"/>
<path d="M243.925 12.2845H247.579C247.579 12.2026 248.066 9.25431 248.148 9.00862H244.412C244.412 9.00862 244.9 5.97845 244.981 5.65086L240.434 8.84483L238.485 20.8017C238.485 21.0474 238.404 21.2931 238.404 21.5388C238.404 22.6034 238.81 23.5862 239.703 24.3233C240.758 25.306 242.139 25.7974 243.844 25.7974H245.387L245.955 22.5216H244.331C243.844 22.5216 243.276 22.4397 242.951 22.1121C242.707 21.8664 242.545 21.5388 242.545 21.0474C242.545 20.9655 242.545 20.8017 242.545 20.7198L243.925 12.2845Z" fill="#ABBED3"/>
<path d="M211.607 9.25431H207.466C207.385 9.90948 205.599 20.6379 205.599 20.6379C205.436 21.7845 204.543 22.3578 203.163 22.3578H203H202.919C202.269 22.3578 201.782 22.1121 201.457 21.7026C201.214 21.375 201.133 20.9655 201.214 20.556L203.081 9.25431H199.103L197.154 20.8017C197.154 21.0474 197.073 21.2931 197.073 21.4569C197.073 22.6034 197.56 23.5862 198.534 24.4052C199.59 25.306 200.97 25.7974 202.513 25.7974H204.705V25.8793C204.705 25.8793 204.624 27.4353 204.056 28.0905C203.731 28.4181 203.163 28.5819 202.432 28.5819C202.432 28.5819 197.803 28.5819 197.722 28.5819C197.641 28.6638 195.205 32.1853 195.205 32.1853H203.406C207.953 32.1853 208.603 27.5172 208.928 25.7974L211.607 9.25431Z" fill="#ABBED3"/>
<path d="M195.449 11.9569C194.393 11.056 193.013 10.5647 191.47 10.5647H189.277L190.008 5.73276H185.867L183.431 21.2112C183.269 22.5216 183.675 23.5862 184.649 24.4871C185.705 25.3879 187.085 25.8793 188.871 25.8793C190.658 25.8793 192.282 25.3879 193.581 24.4871C194.88 23.5862 195.692 22.3578 195.936 20.8836L196.829 15.6422C196.829 15.3966 196.91 15.1509 196.91 14.9871C196.91 13.7586 196.423 12.7759 195.449 11.9569ZM192.85 15.8879L191.957 20.8836C191.795 22.0302 190.983 22.6034 189.521 22.6034C188.709 22.6034 188.141 22.4397 187.816 22.0302C187.572 21.7026 187.491 21.2931 187.572 20.8017L188.222 17.1983L188.465 15.7241C188.628 14.5776 189.521 14.0043 190.901 14.0043H191.064H191.145C191.795 14.0043 192.282 14.25 192.607 14.6595C192.85 15.069 192.931 15.4784 192.85 15.8879Z" fill="#ABBED3"/>
</svg>
