<svg width="267" height="113" viewBox="0 0 267 113" fill="none" xmlns="http://www.w3.org/2000/svg">
<path d="M36.3292 40.3167H19.988V11.2859H12.9746V46.35H34.5759L36.3292 40.3167Z" fill="#000D22"/>
<path d="M47.6912 39.6778H59.2633L61.3673 46.35H68.8716L56.8086 11.2859H50.0757L38.0127 46.35H45.5872L47.6912 39.6778ZM53.4422 21.2941L57.3697 33.6446H49.5147L53.4422 21.2941Z" fill="#000D22"/>
<path d="M81.3554 24.6301L94.8211 46.35H100.712V11.2859H94.0497V33.2897L80.4437 11.2859H74.6226V46.35H81.3554V24.6301Z" fill="#000D22"/>
<path d="M135.709 26.4756C136.2 8.51764 121.472 11.3568 110.11 11.2859V46.3499C125.68 46.6339 137.182 48.2664 135.709 26.4756ZM117.124 17.3191C128.415 16.3964 128.906 19.8744 128.696 31.0892C129.047 40.7425 123.997 40.6715 117.124 40.3166V17.3191Z" fill="#000D22"/>
<path d="M0 0V58.1325H267V0H0ZM147.632 55.5773H2.52482V2.55528H147.632V55.5773ZM183.19 46.3499H180.244V29.5276H163.061V46.3499H160.116V11.2858H163.061V26.7594H180.244V11.2858H183.19V46.3499ZM194.692 32.0119V11.2858H197.637C198.76 19.9454 193.079 45.0013 207.035 43.9366C220.992 45.0013 215.311 19.8744 216.433 11.2858H219.379V32.0119C220.571 51.7443 193.5 51.7443 194.692 32.0119ZM242.313 46.3499H230.881V11.2858H241.121C253.815 10.0082 257.181 24.559 246.942 28.0371C257.953 30.5214 256.199 46.9177 242.313 46.3499Z" fill="#000D22"/>
<path d="M250.028 20.1583C250.869 12.9894 239.788 13.9831 233.827 13.9831V26.7595C239.508 26.8305 250.519 27.9661 250.028 20.1583Z" fill="#000D22"/>
<path d="M241.401 29.5277H233.827V43.5818H242.383C254.656 43.8657 253.885 28.3211 241.401 29.5277Z" fill="#000D22"/>
<path d="M151.279 79.4975C146.65 81.9818 147.071 91.2092 145.949 95.468C144.406 105.121 157.521 102.921 163.482 103.134C163.553 103.063 164.464 98.0233 164.464 98.0942C164.043 98.0942 154.716 98.0942 154.716 98.0942C151.56 98.0942 152.121 94.8292 152.612 92.7707H165.376C165.586 91.1382 166.147 88.441 166.428 86.8794C169.514 77.5811 157.1 74.8838 151.279 79.4975ZM157.591 82.4077C161.238 82.1238 160.537 85.4598 160.046 87.8022H153.383C153.734 85.1759 153.944 82.1947 157.591 82.4077Z" fill="#ABBED3"/>
<path d="M116.703 79.4975C111.303 82.6916 112.004 96.6037 110.181 103.063H116.352C116.352 102.85 119.298 84.963 119.298 84.963C119.579 83.2595 121.402 82.2657 123.085 82.2657C125.119 82.2657 126.311 83.1175 125.961 84.963C125.961 84.963 123.296 101.43 123.015 102.992H129.187C129.117 98.5202 134.798 82.4787 130.379 79.4265C127.223 76.5164 120.21 76.8713 116.703 79.4975Z" fill="#ABBED3"/>
<path d="M107.095 72.2576C107.095 72.2576 102.185 102.779 102.115 103.063H108.287C108.287 102.85 113.196 72.8254 113.267 72.2576C113.267 72.2576 107.095 72.2576 107.095 72.2576Z" fill="#ABBED3"/>
<path d="M172.179 79.4974C167.55 81.9817 167.971 91.2091 166.849 95.4679C165.867 101.714 173.371 103.844 178.351 103.134C178.421 104.411 177.579 107.818 174.774 107.393C174.774 107.393 167.691 107.393 167.55 107.393C167.48 107.464 163.693 112.858 163.693 112.858C173.652 112.503 183.471 115.91 184.593 103.134C184.733 102.495 187.468 85.1048 187.609 84.466C187.819 82.4786 187.188 80.7751 185.785 79.4974C182.629 76.3743 175.756 76.8712 172.179 79.4974ZM173.442 96.8165C172.249 95.9648 174.844 86.2405 174.774 84.9629C174.774 81.6978 182.208 81.059 181.437 85.0339L180.104 92.9836C179.824 95.6099 179.122 98.2361 175.616 97.8102C174.704 97.7393 173.932 97.3844 173.442 96.8165Z" fill="#ABBED3"/>
<path d="M199.531 77.439C186.907 77.5809 188.941 93.6224 186.557 103.134H192.728C192.728 102.921 195.674 85.0338 195.674 85.0338C195.884 83.6852 197.287 82.5495 198.69 82.4076C198.9 82.1946 202.126 82.3366 202.126 82.3366L202.968 77.439C202.968 77.439 199.531 77.439 199.531 77.439Z" fill="#ABBED3"/>
<path d="M204.09 82.3366C208.929 82.4786 213.769 80.988 211.735 88.086C208.158 87.944 204.09 88.086 201.215 90.3574C190.624 99.0169 204.932 107.818 213.137 101.288C217.766 98.804 217.345 89.4346 218.468 85.1758C219.449 77.7939 210.262 76.9421 204.932 77.439L204.09 82.3366ZM204.23 97.3134C202.267 92.9126 207.947 92.3448 210.963 92.6997L210.542 95.4679C210.192 98.0942 205.773 98.9459 204.23 97.3134Z" fill="#ABBED3"/>
<path d="M140.759 82.3368H146.369C146.369 82.1238 147.141 77.6521 147.211 77.3682H141.53C141.53 77.3682 142.302 72.6835 142.372 72.3286L135.429 77.2262C135.078 87.0215 125.469 104.412 143.003 103.134L143.845 98.1653C142.021 98.0943 138.514 98.8041 138.585 95.9649C138.585 95.823 138.585 95.61 138.655 95.3971L140.759 82.3368Z" fill="#ABBED3"/>
<path d="M91.5248 77.7231H85.2127C85.0724 78.7878 82.3372 95.1842 82.3372 95.1842C82.1268 97.0297 80.5137 97.9524 78.2694 97.8105C76.6564 97.7395 75.3238 96.6748 75.6745 95.0422L78.55 77.7231H72.4483C71.8171 88.2282 62.5594 104.483 81.0047 103.063C81.0748 104.341 80.2332 107.748 77.4278 107.322C77.4278 107.322 70.3443 107.322 70.204 107.322C70.1339 107.393 66.3467 112.787 66.3467 112.787H78.9007C85.7738 112.787 86.8258 105.689 87.2466 102.992L91.5248 77.7231Z" fill="#ABBED3"/>
<path d="M66.9079 81.8399C64.5935 79.5686 60.6659 79.6395 57.5099 79.7105L58.5619 72.3286H52.2499C52.4603 76.2325 45.7975 98.3782 50.3563 100.934C55.4059 105.405 66.5572 102.708 67.6092 95.3971C67.9599 91.6351 71.0458 84.6081 66.9079 81.8399ZM62.8401 87.8022L61.4374 95.4681C61.4374 98.7331 54.0032 99.372 54.7747 95.3971C55.0552 93.8355 55.8968 89.0799 56.1774 87.6603C56.1774 84.3242 63.4713 83.8274 62.8401 87.8022Z" fill="#ABBED3"/>
</svg>
