<svg width="577" height="148" viewBox="0 0 577 148" fill="none" xmlns="http://www.w3.org/2000/svg">
<path d="M28.377 69.2853C28.377 70.1053 27.2803 70.7885 25.7724 70.7885C13.5716 70.7885 0 60.5392 0 42.7738C0 18.4488 21.7969 0 55.2461 0C73.4787 0 90.2034 6.83287 105.009 16.5355C108.025 13.1191 109.944 11.3426 110.218 11.3426C111.726 11.3426 112.411 12.2992 112.411 13.1191C112.411 13.2558 110.766 15.3056 108.162 18.5854L112.96 22.0018C113.508 22.2752 113.919 22.8218 113.919 23.3684C113.919 24.0517 113.097 25.0083 112.411 25.0083C111.863 25.0083 111.315 24.735 110.218 24.0517C108.71 23.2318 107.476 22.2752 105.968 21.3186C92.3968 38.8107 61.4151 81.7211 61.4151 118.755C61.4151 133.788 67.8582 142.534 81.5669 142.534C109.944 142.534 143.804 83.361 143.804 83.361C143.804 83.361 157.102 38.9474 163.134 38.9474C165.053 38.9474 165.876 40.4506 165.876 42.0905C165.876 50.2899 149.973 82.2678 149.973 82.2678C149.973 82.2678 148.191 91.0138 148.191 101.126C148.191 114.929 151.481 131.054 168.069 131.054C194.253 131.054 228.387 75.2982 228.387 32.7978C228.387 12.2992 221.122 2.59649 221.122 1.63989C221.122 0.956602 221.807 0.683287 222.218 0.683287C223.178 0.683287 234.556 9.97599 234.556 32.7978C234.556 75.1616 197.817 136.111 168.617 136.111C145.724 136.111 142.434 115.339 142.434 103.176C142.434 97.5734 143.119 93.6103 143.119 93.6103C143.119 93.6103 112.411 148 81.0185 148C64.1568 148 55.2461 136.384 55.2461 119.029C55.2461 79.5346 87.3245 36.6242 102.404 19.2687C88.6954 10.9326 72.9304 4.78301 56.4799 4.78301C24.1273 4.78301 5.75766 22.0018 5.75766 43.0471C5.75766 58.626 17.273 68.0554 26.5949 68.0554C28.1029 68.1921 28.377 68.7387 28.377 69.2853ZM250.595 111.239C241.685 111.239 234.556 106.046 234.556 96.6168C234.556 81.4478 255.119 64.7756 267.731 64.7756C272.804 64.7756 276.231 67.7821 276.231 71.8818C276.231 81.7211 254.16 90.7405 240.588 94.157C240.314 95.1136 240.314 96.0702 240.314 97.1634C240.314 102.903 244.564 106.456 250.732 106.456C270.473 106.456 285.553 88.0074 285.553 88.0074C285.553 88.0074 286.375 87.0508 287.198 87.0508C288.157 87.0508 288.98 88.0074 288.98 88.8273C288.98 89.5106 288.157 90.4672 288.157 90.4672C288.157 90.4672 269.651 111.239 250.595 111.239ZM241.959 89.374C254.434 86.0942 271.158 78.1681 271.158 71.3352C271.158 70.7886 270.61 69.422 268.143 69.422C259.232 69.422 246.757 79.2613 241.959 89.374ZM296.383 109.599C289.117 109.599 283.908 104.816 283.908 96.8901C283.908 69.5586 319.824 19.2687 335.315 19.2687C339.428 19.2687 342.444 21.8652 342.444 26.1016C342.444 38.4007 311.188 70.3786 290.488 89.374C290.488 89.374 288.98 91.6971 288.98 96.8901C288.98 102.083 291.722 104.953 297.205 104.953C308.446 104.953 321.332 90.6039 323.526 88.144C323.526 88.144 324.348 87.1874 325.034 87.1874C325.993 87.1874 326.953 88.144 326.953 88.964C326.953 89.6473 326.13 90.6039 326.13 90.6039C323.8 93.0637 308.172 109.599 296.383 109.599ZM291.31 82.6777C309.269 66.4155 337.646 36.6242 337.646 25.2816C337.646 24.4617 337.097 23.3684 335.452 23.3684C325.856 23.3684 300.084 56.3029 291.31 82.6777ZM335.864 110.283C326.542 110.283 321.058 104.543 321.058 97.1634C321.058 81.7211 339.976 64.7756 352.588 64.7756C357.798 64.7756 361.636 67.5088 361.636 71.8818C361.636 75.8449 357.386 79.2613 356.152 79.2613C354.919 79.2613 354.233 78.3047 354.233 77.3481C354.233 76.5282 356.975 74.7516 356.975 71.8818C356.975 70.5152 356.153 69.1487 353.685 69.1487C342.992 69.1487 326.679 83.9077 326.679 97.4368C326.679 103.04 330.517 106.183 336.412 106.183C353.137 106.183 365.886 92.3804 369.724 88.144C369.724 88.144 370.547 87.1874 371.369 87.1874C372.192 87.1874 373.151 88.144 373.151 88.964C373.151 89.6473 372.329 90.6039 372.329 90.6039C368.49 94.7036 353.274 110.283 335.864 110.283ZM421.817 88.0074C421.817 88.0074 422.64 87.0508 423.462 87.0508C424.285 87.0508 425.244 88.0074 425.244 88.8273C425.244 89.5106 424.422 90.4672 424.422 90.4672C416.06 99.3499 409.479 101.673 400.432 101.673C399.472 101.673 398.65 101.673 397.69 101.536C392.069 106.183 385.763 108.916 380.417 108.916C373.151 108.916 367.668 104.133 367.668 96.4801C367.668 90.0572 370.958 83.2244 375.893 77.6214C376.03 66.8255 386.449 56.9861 398.375 56.9861C408.52 56.9861 413.455 63.819 413.455 72.8384C413.455 81.7211 408.52 90.8772 401.94 97.5734H402.077C409.342 97.4367 415.648 94.7036 421.817 88.0074ZM391.521 99.6233C385.215 96.8901 379.32 91.4238 376.853 84.591C374.659 88.6907 373.426 92.9271 373.426 96.8901C373.426 100.717 375.208 103.996 380.554 103.996C383.844 103.86 387.82 102.356 391.521 99.6233ZM395.497 96.4801C402.351 90.4672 407.971 81.0379 407.971 72.5651C407.971 66.5522 404.407 61.7692 398.787 61.7692C391.658 61.7692 384.941 65.8689 382.062 71.6085C387.134 67.6454 392.892 65.0489 398.375 65.0489C400.569 65.0489 401.528 65.5956 401.528 66.5522C401.528 67.9187 400.432 68.1921 399.198 68.3287C392.069 69.012 385.352 73.2484 380.691 79.1247C381.239 88.0074 387.957 94.157 395.497 96.4801ZM498.997 107.276C494.748 107.276 490.087 104.27 490.087 99.3499C490.087 91.2872 496.941 84.7276 496.941 78.8513C496.941 77.8947 496.119 76.9381 494.474 76.9381C487.208 76.9381 471.169 90.8772 462.532 98.6667C460.202 100.853 458.968 102.22 456.912 102.22C455.404 102.22 454.444 101.126 454.444 99.6233C454.444 94.4303 473.362 75.4349 473.362 69.6953C473.362 68.0554 472.402 67.2355 470.346 67.2355C459.928 67.2355 434.155 88.6907 420.721 104.543C418.938 106.729 418.39 107.686 416.06 107.686C414.689 107.686 413.318 106.183 413.318 104.68C413.318 102.903 415.923 98.8033 421.269 90.0573C428.123 78.578 442.106 63.1357 443.888 63.1357C446.082 63.1357 446.493 64.9123 446.493 65.8689C446.493 66.5522 445.808 67.2355 444.848 68.1921C439.09 74.205 434.978 77.3481 422.366 96.7535C435.663 81.7211 458.831 62.3158 471.169 62.3158C475.555 62.3158 478.846 65.8689 478.846 69.6953C478.846 76.1182 467.604 86.5042 464.863 91.2872C469.935 86.5042 485.837 72.0185 495.57 72.0185C499.134 72.0185 502.287 75.0249 502.287 78.4414C502.287 84.3176 495.57 92.3804 495.57 98.94C495.57 101.263 497.078 102.903 500.231 102.903C512.021 102.903 524.77 87.8707 524.77 87.8707C524.77 87.8707 525.592 86.9141 526.415 86.9141C527.237 86.9141 528.197 87.8707 528.197 88.6907C528.197 89.374 527.374 90.3306 527.374 90.3306C527.374 90.3306 512.432 107.276 498.997 107.276ZM538.616 111.239C529.705 111.239 522.576 106.046 522.576 96.6168C522.576 81.4478 543.139 64.7756 555.751 64.7756C560.824 64.7756 564.251 67.7821 564.251 71.8818C564.251 81.7211 542.18 90.7405 528.608 94.157C528.334 95.1136 528.334 96.0702 528.334 97.1634C528.334 102.903 532.584 106.456 538.753 106.456C558.493 106.456 573.573 88.0074 573.573 88.0074C573.573 88.0074 574.395 87.0508 575.218 87.0508C576.177 87.0508 577 88.0074 577 88.8273C577 89.5106 576.177 90.4672 576.177 90.4672C576.177 90.4672 557.671 111.239 538.616 111.239ZM529.979 89.374C542.454 86.0942 559.179 78.1681 559.179 71.3352C559.179 70.7886 558.63 69.422 556.163 69.422C547.252 69.422 534.777 79.2613 529.979 89.374Z" fill="white"/>
</svg>
